<svg xmlns="http://www.w3.org/2000/svg" viewBox="0 0 707.33 574.24"><title>helping each other</title><g id="Layer_18" data-name="Layer 18"><path d="M7.31,373.86c5.3-13.92,20.58-19.47,34.42-19.72,14.64-.27,29.19,3.29,43.8,4.09a237.76,237.76,0,0,0,85.25-11.13c.92-.29.53-1.74-.4-1.44a235.88,235.88,0,0,1-95.94,10.2c-22.49-2.3-58-10.28-68.58,17.6-.34.9,1.11,1.29,1.45.4Z" transform="translate(56.56 -15.39)" style="fill:#e8e8e8"/><path d="M-7.63,230.09c31.61-9.48,64,.38,95.13,6.88,15,3.13,30.19,5.65,45.54,5.28s30.77-3.41,45.61-7.71c31.41-9.1,61.14-23.12,92.49-32.51a505.64,505.64,0,0,1,214.42-16.37c.95.13,1.36-1.31.4-1.44a509.06,509.06,0,0,0-198.25,11.61c-32.54,8.51-63.17,21.85-94.93,32.66-15.93,5.43-32.31,9.94-49.11,11.6-16.42,1.63-32.68-.07-48.83-3.17C61.12,230.46,26.21,218.37-8,228.65a.75.75,0,0,0,.4,1.44Z" transform="translate(56.56 -15.39)" style="fill:#e8e8e8"/><path d="M263.16,162.26c54.16.91,105.81-21.36,160.08-18.87,52.67,2.42,103,23.11,156.09,21.28,25.16-.86,50.23-6.85,71.1-21.38.79-.55,0-1.85-.76-1.3-41.14,28.65-94.18,23-140.62,13.77-25.94-5.13-51.79-11.32-78.22-13.39s-52.21,1.49-78,6.41c-29.65,5.66-59.29,12.49-89.66,12a.75.75,0,0,0,0,1.5Z" transform="translate(56.56 -15.39)" style="fill:#e8e8e8"/><path d="M315.77,224.88c83.63-14.19,168,14.3,251.64-.54C588.5,220.6,609,214,627.75,203.6c.85-.47.09-1.76-.75-1.3-73.58,40.56-160.33,20.36-239.66,17.33-24.07-.92-48.19-.23-72,3.8-.95.16-.55,1.61.4,1.45Z" transform="translate(56.56 -15.39)" style="fill:#e8e8e8"/><path d="M-55.43,139.19a91.86,91.86,0,0,1,53.68-9.37c18.54,2.46,35,11.7,52.53,17.65,34.17,11.62,70.77,14,106.59,11.74a562.14,562.14,0,0,0,61.33-7.71c1-.17.55-1.61-.4-1.45C181,156.59,143,160.73,105.13,157.22a234.67,234.67,0,0,1-55.65-11.78c-17-5.94-33-14.73-51.13-17.12a93.33,93.33,0,0,0-54.53,9.58c-.86.43-.11,1.73.75,1.29Z" transform="translate(56.56 -15.39)" style="fill:#e8e8e8"/><path d="M107.81,117.3c64.46,14.32,126.94-13.84,188.58-28.43,18.62-4.41,37.52-7.58,56.68-8.21,1,0,1-1.54,0-1.5C288,81.32,228.62,112.91,164.15,118.84c-18.72,1.73-37.56,1.1-55.94-3-.94-.21-1.34,1.23-.4,1.44Z" transform="translate(56.56 -15.39)" style="fill:#e8e8e8"/><path d="M325.23,42.92a411.12,411.12,0,0,1,120-12.13,406.28,406.28,0,0,1,60,7.33c19.6,3.89,38.87,8.42,58.94,8.87,22.53.5,44.93-2.69,67-6.84,1-.18.55-1.62-.4-1.45-20.69,3.89-41.63,6.92-62.73,6.84-21.3-.08-41.66-4.74-62.43-8.87a410.43,410.43,0,0,0-180.85,4.8.75.75,0,0,0,.39,1.45Z" transform="translate(56.56 -15.39)" style="fill:#e8e8e8"/></g><g id="Layer_19" data-name="Layer 19"><circle cx="127.45" cy="8.07" r="6.13" style="fill:#461eb8"/><circle cx="190.62" cy="173.16" r="3.6" style="fill:#461eb8"/><circle cx="112.58" cy="274.65" r="5.82" style="fill:none;stroke:#461eb8;stroke-miterlimit:10"/><circle cx="584.75" cy="102.17" r="4.8" style="fill:none;stroke:#461eb8;stroke-miterlimit:10"/><circle cx="324.5" cy="26.39" r="4.78" style="fill:none;stroke:#461eb8;stroke-miterlimit:10"/><circle cx="372.08" cy="109.79" r="5.66" style="fill:#461eb8"/><circle cx="163.62" cy="162.93" r="3.58" style="fill:#ec615b"/><circle cx="135.82" cy="84.47" r="5.43" style="fill:none;stroke:#ec615b;stroke-miterlimit:10"/><circle cx="301.03" cy="182.86" r="5.5" style="fill:#ec615b"/><circle cx="263.59" cy="59.63" r="3.99" style="fill:#ec615b"/><circle cx="311.62" cy="226.78" r="3.16" style="fill:none;stroke:#ec615b;stroke-miterlimit:10"/><circle cx="608.51" cy="162.93" r="3.58" style="fill:none;stroke:#ec615b;stroke-miterlimit:10"/><path d="M165.24,89.09a1.5,1.5,0,0,0,0-3,1.5,1.5,0,0,0,0,3Z" transform="translate(56.56 -15.39)" style="fill:#ec615b"/><path d="M241.49,316.32c2.43-1.92,5.91,1,8.46,1.19a5.21,5.21,0,0,0,3.27-.87q.48-.52.9-1.08l4.52-.51c1.2.12,1.84.9,3.16,1,3.08.17,9.6-4.31,11,.58a.75.75,0,0,0,1.45-.4c-.63-2.16-2.24-3.15-4.51-3.31-1.93-.14-3.44.9-5.28,1.15-2.39.33-4.4-.66-6.52-1-.53-.1-1.05-.52-1.61-.51-1.57,0-1.5.5-2.72,1.17-2.77,1.51-3.87,2.37-6.75,1.43-2.42-.8-4.35-1.5-6.46.17-.76.6.31,1.65,1.06,1.06Z" transform="translate(56.56 -15.39)" style="fill:#ec615b"/><path d="M261.08,323.45c3.08-2.17,5.37-.79,8.44.16.7.22.93.64,1.54.77,2.26.49,2.14-1,4-1.62,2.75-.91,3.84,1.19,6.33,1.3s6-4,7.76-.94a.75.75,0,0,0,1.3-.76c-1-1.7-2.41-2.05-4.36-1.65-3.09.65-2.2,2.18-7.09.52-.89-.3-1.16-1.05-2.25-1.07a3.53,3.53,0,0,0-1.51.48c-1.86.89-.86,1.42-3.3,1.57-1.94.13-1.87-.27-3.41-1a7.79,7.79,0,0,0-8.19,1c-.79.55,0,1.85.75,1.29Z" transform="translate(56.56 -15.39)" style="fill:#ec615b"/><path d="M492.6,17.84c2.73-1.46,5.24,1.44,7.85,1.64,1.62.12,2-.77,3.24-1.27,3.84-1.52,3.89.9,7,1.53,3.51.71,6.35-1.66,9.67,1.37.71.65,1.78-.41,1.06-1.06-2.09-1.91-3.73-3-6.57-2.88-2.46.12-4.2.57-6.71-.59-.82-.38-1.48-1.11-2.45-1.18a3.55,3.55,0,0,0-1.94.46c-1.08.4-.85.94-2.43,1.4-1.89.56-2.11.3-3.82-.36-2-.78-3.65-1.44-5.68-.35-.85.46-.09,1.75.76,1.29Z" transform="translate(56.56 -15.39)" style="fill:#ec615b"/><path d="M513.14,26.4c1-3.65,6.27.78,8.18,1.06,2.31.34,3-1.37,5.06-1.45,1.9-.08,2,1.54,3.78,1.74.49.06,1-.31,1.45-.32a2.54,2.54,0,0,0,1-.76c2.79-.74,4.92-.16,6.41,1.76.69.68,1.75-.38,1.06-1.06-2.39-2.37-4-3.31-7.17-2.75-1.82.32-.14,2.37-3.65.91-.5-.21-.75-1.21-1.33-1.35s-1-.5-1.55-.47c-.42,0-.84.35-1.24.43-2.29.47.92,1-3.5.88-2.4-.07-3.74-1.29-6-1.46-2-.15-3.42.51-4,2.44a.75.75,0,0,0,1.44.4Z" transform="translate(56.56 -15.39)" style="fill:#ec615b"/><path d="M21.62,410.08c.05-1.17,6.38,1.51,7.79,1.12s1.66-1.47,2.64-2.23c2.13-1.67,3.42-.58,5.72-.58,3.29,0,5.06-2.72,8.8-1.33,2.63,1,4.1,3,7.1,3a.75.75,0,0,0,0-1.5c-3.93,0-6.49-4.51-10.42-4-2.49.32-3.7,2.21-6.59,1.85-1.35-.16-1.84-.94-3.32-.49-1.32.4-1.69,1.66-2.71,2.43-3.57,2.68-4-.39-6.92-.84-2-.3-3.5.59-3.59,2.55-.05,1,1.45,1,1.5,0Z" transform="translate(56.56 -15.39)" style="fill:#ec615b"/><path d="M45.16,413.86c4.15-2.51,3.52,2.1,5.87,2.37,3.38.38,6.23-1.15,9.62.88,2.66,1.59,5.49,2.67,8,.4.72-.65-.34-1.7-1.06-1.06-3.23,2.88-6.77-1.67-9.59-2.49-2.24-.65-4,.5-6.12,0-3-.63-4.12-3.49-7.51-1.44-.82.5-.07,1.8.76,1.3Z" transform="translate(56.56 -15.39)" style="fill:#ec615b"/><path d="M275.35,119.44a1.5,1.5,0,0,0,0-3,1.5,1.5,0,0,0,0,3Z" transform="translate(56.56 -15.39)" style="fill:#461eb8"/><path d="M125.05,43.55c3.46-4.89,6.33-.9,9.75-.13,1.51.34,1.89-.19,3.24-.61,2.75-.87,4.2,0,6.77.31,3.37.41,5.3-2.24,9.32-.52.88.38,1.64-.91.76-1.29-2.93-1.26-4.79-.73-7.82-.41s-5.41-1-8.36-.38c-1.36.31-2.74,1.38-4.39,1-.7-.16-1.42-.9-2.12-1.15a8.4,8.4,0,0,0-2.8-.55,6.46,6.46,0,0,0-5.64,3c-.56.79.74,1.54,1.29.75Z" transform="translate(56.56 -15.39)" style="fill:#461eb8"/><path d="M146.5,141.33c.52-3.87,6.88.67,8.65.91s3.08-.55,4.55-1.49c2.17-1.39,1.79-1.79,5.29-.31.41.17.64.8,1.11.88,2.55.42,7.66-.79,9.2.53.73.63,1.79-.43,1.06-1.06-2.6-2.23-4.1-1.65-7.16-1.38a6.58,6.58,0,0,1-4-.86c-.41-.17-.68-.58-1.1-.74a3.65,3.65,0,0,0-2.44,0c-3.75,1.06-3,4-8.46,2.06-1.27-.45-2.19-1.47-3.58-1.71-2.17-.37-4.29.54-4.59,2.79-.13.94,1.32,1.35,1.44.4Z" transform="translate(56.56 -15.39)" style="fill:#461eb8"/><path d="M172.37,147.21c2.81-.23,5.83-.82,8.64-.71,3.47.13,5,2,7.8,3a9,9,0,0,0,8.13-1.18c.8-.52.05-1.82-.76-1.3-3.74,2.43-6.4,1.26-9.83-.92a6.06,6.06,0,0,0-2.12-1.07c-3.52-.9-8.27.39-11.86.68-1,.08-1,1.58,0,1.5Z" transform="translate(56.56 -15.39)" style="fill:#461eb8"/></g><g id="Layer_17" data-name="Layer 17"><path d="M441.25,257.65,301.76,281.1c-.74.13-.68,1.28,0,1.45l20.11,4.92.2-1.47a112,112,0,0,0-23.85,5.28.75.75,0,0,0-.33,1.25,29.06,29.06,0,0,0,14.48,7c.94.17,1.35-1.28.4-1.45A27.64,27.64,0,0,1,299,291.47l-.34,1.25a111,111,0,0,1,23.46-5.22c.79-.08,1.09-1.25.2-1.47l-20.11-4.93v1.45l139.49-23.46c1-.16.55-1.6-.4-1.44Z" transform="translate(56.56 -15.39)" style="fill:#e8e8e8"/><path d="M309.13,300.32l-6.59,20.61-3,9.36-1.2,3.75c-1,3.15-1,4.29-4.25,4.94-4.85,1-9.34.94-14.09,2.78a53,53,0,0,0-12.87,7.3c-9.25,7-16.13,16.63-22.42,26.28-7.51,11.5-14.78,23.16-22.15,34.75l-5.77,9.07c-1.68,2.64-3.16,5.94-5.25,8.24-2.42,2.66-6.41,3.46-9.65,4.67l-10.87,4-18.1,6.72c-4.64,1.73-10.49,3-14.48,6s-6.31,8.75-8.82,13.06q-5.38,9.25-11,18.42-10.41,17.12-21.42,33.86-25,38.09-53,74.1c-.59.75.47,1.82,1.06,1.06a1154.74,1154.74,0,0,0,77.57-113q4.32-7.19,8.54-14.44c3.54-6.1,5.95-11.45,12.88-14.23,11.34-4.55,22.94-8.52,34.39-12.78l7.25-2.69c1.62-.6,4.39-1.06,5.76-2.21,1.17-1,2.43-3.78,3.26-5.1l5.25-8.24,19.94-31.33c13-20.44,29.34-46.51,57.15-44.68a.77.77,0,0,0,.72-.55l12.58-39.34c.3-.92-1.15-1.32-1.45-.4Z" transform="translate(56.56 -15.39)" style="fill:#e8e8e8"/><path d="M336.21,296c-3.32,1.37-7,2.5-10.18,4.19-1,.52-2.25,1-2.66,2.15-1.09,3.14,3.12,4.42,5.28,4.94,14.25,3.41,29.28,4.58,43.9,4.75l-.2-1.48-13.74,4.71a.76.76,0,0,0-.45,1.1c1.89,4,5.73,5.32,9.9,5.8,7.4.87,15.15.25,22.59.28l50,.16a.75.75,0,0,0,0-1.5l-49-.16c-7.36,0-14.89.4-22.23-.15-2.19-.17-10.76-1.57-8.68-4.67.64-1,4.85-1.66,6-2.06l6-2.06a.75.75,0,0,0-.2-1.47,225.78,225.78,0,0,1-29.05-2.14c-3.93-.56-10-.57-13.5-2.36l-1.91-.4q-2.11-4.71,1.74-5.39c1.77-1.3,4.74-2,6.78-2.8.88-.36.5-1.81-.4-1.44Z" transform="translate(56.56 -15.39)" style="fill:#e8e8e8"/><path d="M437.33,259.2a431.27,431.27,0,0,1,92.2,1.39.76.76,0,0,0,.73-.95L526.41,249l-.92.92,43.27,8.76c.5.1,1.14-.35.92-.93l-3-7.73-.92.92a133,133,0,0,0,26.57,5.39c1,.09,1-1.41,0-1.5a131.14,131.14,0,0,1-26.17-5.34c-.51-.16-1.14.39-.93.93l3,7.73.92-.92-43.27-8.75c-.51-.11-1.13.34-.92.92l2.25,6.24c1.06,2.94,1.53,2.94-1.58,3-3.82.12-7.91-.85-11.74-1.19q-12.72-1.11-25.51-1.45a432.8,432.8,0,0,0-51.05,1.72c-.95.09-1,1.59,0,1.5Z" transform="translate(56.56 -15.39)" style="fill:#e8e8e8"/><path d="M449.41,323.78a26.19,26.19,0,0,0-10.65,6.56.75.75,0,0,0,.33,1.25c20.8,4.1,43,1,64,0l-.53-1.28a19.32,19.32,0,0,1-7.72,4.77c-.65.22-.78,1.29,0,1.44a341.93,341.93,0,0,0,67.69,6.68.75.75,0,0,0,0-1.5,340.2,340.2,0,0,1-67.29-6.62v1.44a21.23,21.23,0,0,0,8.38-5.15.76.76,0,0,0-.53-1.28c-20.86,1-43,4.08-63.64,0l.33,1.26a24.33,24.33,0,0,1,10-6.17c.92-.3.52-1.75-.4-1.45Z" transform="translate(56.56 -15.39)" style="fill:#e8e8e8"/><path d="M251.08,432.8c3.55,3.31,7.91,4.36,12.43,5.74a22.13,22.13,0,0,1,9.12,5c1.62,1.5,2.91,2.79,5.08,3.43,5.51,1.61,12.81-.85,18.26-1.49a211.66,211.66,0,0,1,22.37-1.37.75.75,0,0,0,0-1.5c-6.54.07-13.07.4-19.58,1.07-5.85.6-12.13,2.43-18,2.2-5.31-.21-8.3-5.44-13-7.42-5.3-2.25-11.25-2.6-15.64-6.69-.71-.65-1.77.4-1.06,1.06Z" transform="translate(56.56 -15.39)" style="fill:#e8e8e8"/><path d="M147.94,546.21a114.12,114.12,0,0,0,21.83,7.91c6.46,1.72,12.73,3.94,19.39,2.38,17.16-4,34.05-7.36,51.69-8.52,1-.06,1-1.56,0-1.5a264.63,264.63,0,0,0-45,6.78c-3.73.9-7.65,2.46-11.52,2.48-4.07,0-8.48-1.6-12.39-2.61a117.33,117.33,0,0,1-23.19-8.21c-.87-.43-1.63.86-.76,1.29Z" transform="translate(56.56 -15.39)" style="fill:#e8e8e8"/><path d="M203.6,516.06l25.71,9.44c7.61,2.8,14,4.51,22.11,4.31,17.55-.43,35.11-1,52.66-1.52,1,0,1-1.53,0-1.5l-50.71,1.46c-4.4.13-8.83.36-13.16-.64s-8.3-2.74-12.34-4.23L204,514.61c-.91-.33-1.3,1.12-.4,1.45Z" transform="translate(56.56 -15.39)" style="fill:#e8e8e8"/><path d="M247.64,435.49l-9.12,28c-.3.92,1.14,1.31,1.44.4l9.13-28c.3-.92-1.15-1.31-1.45-.4Z" transform="translate(56.56 -15.39)" style="fill:#e8e8e8"/><path d="M144.23,550.67q-7.74,17.16-15.8,34.16c-.41.86.88,1.63,1.29.75q8.07-17,15.8-34.15c.4-.87-.9-1.64-1.29-.76Z" transform="translate(56.56 -15.39)" style="fill:#e8e8e8"/><path d="M128.72,543.32q-8.44,13.74-17.47,27.12c-.54.8.75,1.55,1.29.75q9-13.37,17.48-27.12c.51-.82-.79-1.58-1.3-.75Z" transform="translate(56.56 -15.39)" style="fill:#e8e8e8"/><path d="M310.64,356.91l-13.17,14.58c-1.56,1.73-5.25,4.53-3.59,7.25,1.57,2.57,7.56,2.61,10,3.11l20.1,4.21c.95.19,1.35-1.25.4-1.45L311.91,382c-3.48-.73-9.3-.89-12.45-2.61-2,.21-2.74-.75-2.08-2.9a2.87,2.87,0,0,1,1.15-3.95c1-1.59,2.7-3,4-4.38L311.7,358c.64-.71-.41-1.78-1.06-1.06Z" transform="translate(56.56 -15.39)" style="fill:#e8e8e8"/><path d="M320.45,453.67l-6.4,30.4c-.2.94,1.25,1.34,1.44.39l6.41-30.39c.2-.94-1.25-1.34-1.45-.4Z" transform="translate(56.56 -15.39)" style="fill:#e8e8e8"/><path d="M345.67,429.19c-1.49,1.55-7.77,6.14-7.61,8.48.08,1.19.72,1.43,1.6,2.05,3,2.14,8.45,2.91,12,3.78,4,1,8.06,1.74,12.14,2.36,17.68,2.66,35.65,2.67,53.24,6,.94.18,1.35-1.26.4-1.44-13.57-2.55-27.35-3.2-41.07-4.53a176.06,176.06,0,0,1-22.6-3.4c-3.16-.72-6.28-1.58-9.36-2.6-6.68-2.23-.44-6.74,2.33-9.61.67-.69-.39-1.75-1.07-1.06Z" transform="translate(56.56 -15.39)" style="fill:#e8e8e8"/><path d="M327.74,549.83l-14.77,14c-2,1.87-7.5,5.21-6.63,8.65.62,2.47,4,3,6.05,3.16,6.29.46,12.56.37,18.85,1.1,25.48,3,50.34,10.77,76.21,9.65,1,0,1-1.54,0-1.5-21.45.93-42.3-4.27-63.31-7.79a186.79,186.79,0,0,0-28.4-2.92c-1.13,0-4.2.37-5-.24l-1.63-4.38,1.4-1.33c1.37-2,3.88-3.68,5.63-5.34l12.67-12c.7-.67-.36-1.73-1.07-1.06Z" transform="translate(56.56 -15.39)" style="fill:#e8e8e8"/><path d="M466.88,467c1.44,13.74-3,28.19-4.89,41.78q-2.72,19.47-4.19,39.1c-.07,1,1.43.95,1.5,0q1.63-21.36,4.69-42.58c1.81-12.5,5.72-25.61,4.39-38.3-.1-1-1.6-1-1.5,0Z" transform="translate(56.56 -15.39)" style="fill:#e8e8e8"/><path d="M493.59,341.6q-1.12,26.81-1.15,53.62a.75.75,0,0,0,1.5,0q0-26.82,1.15-53.62c0-1-1.46-1-1.5,0Z" transform="translate(56.56 -15.39)" style="fill:#e8e8e8"/><path d="M364.11,323.57a189.12,189.12,0,0,1,6.64,50.2.75.75,0,0,0,1.5,0,190.89,190.89,0,0,0-6.69-50.6.75.75,0,0,0-1.45.4Z" transform="translate(56.56 -15.39)" style="fill:#e8e8e8"/><path d="M424.61,364.72q1.81,21.63,5,43.11c.14.95,1.59.55,1.45-.4q-3.15-21.27-4.95-42.71c-.08-1-1.58-1-1.5,0Z" transform="translate(56.56 -15.39)" style="fill:#e8e8e8"/><path d="M547.63,499.12q2.68,29.28,4.73,58.6c.07,1,1.57,1,1.5,0q-2-29.33-4.73-58.6c-.09-1-1.59-1-1.5,0Z" transform="translate(56.56 -15.39)" style="fill:#e8e8e8"/></g><g id="guy_2" data-name="guy 2"><g id="leg_left" data-name="leg left"><path d="M150.55,503.4,142,530.81q59.66,8.66,60.42,5,.63-3-40.09-14.73,1.48-9.29,2.95-18.57Z" transform="translate(56.56 -15.39)"/><path d="M98,408a67.42,67.42,0,0,0,14.27,11.18c7.9,4.76,20.56,13.64,39.1,27.43q-2.25,7.57-4.42,15.39-5.73,20.66-10.11,40.3a61.59,61.59,0,0,0,14.69,4.5A63.43,63.43,0,0,0,180,505.12c1.74-10.07,3.17-18.63,4.24-25.21,3.38-20.75,4.42-28.69,5.11-34.45s1.18-10.68,1.49-14a216.54,216.54,0,0,0-14.57-18.17c-9.4-10.53-18.19-20.38-31.87-28.58A101.3,101.3,0,0,0,113,372.52L91.88,400.69A66.3,66.3,0,0,0,98,408Z" transform="translate(56.56 -15.39)" style="fill:#fff"/><path d="M108.6,389.82c3.39,4.12,7.13,8.32,11.25,12.54A203.23,203.23,0,0,0,160,434.18q.21,8.46.33,17,.38,29.1-.33,57A26,26,0,0,1,144.26,505a24.39,24.39,0,0,1-6.08-5,221.08,221.08,0,0,1,8.47-39.84c1.67-5.34,3.47-10.39,5.34-15.14-10.5-6.59-18.52-11.57-22.77-14.21-19.72-12.22-26.47-16.2-33-24.75a61.48,61.48,0,0,1-8.47-15Z" transform="translate(56.56 -15.39)" style="fill:#9e9e9e;opacity:0.23"/><path d="M91.24,401.07c6.2,9.1,15.44,15.06,24.33,21.25l34.29,23.85c.79.55,1.54-.75.76-1.3l-31.1-21.63c-9.66-6.72-20.24-13-27-22.93-.54-.79-1.84,0-1.29.76Z" transform="translate(56.56 -15.39)"/><path d="M144,385.34A237.08,237.08,0,0,1,169,406.79q5.27,5.22,10.19,10.77c3,3.35,11.66,11,10.85,15.68-.16.94,1.28,1.35,1.45.4.69-4-2.69-7-5-9.84q-6.33-7.77-13.33-15A239.16,239.16,0,0,0,144.76,384c-.78-.58-1.53.72-.76,1.3Z" transform="translate(56.56 -15.39)"/><path d="M190.54,432.74q-5.39,34.51-10.17,69.11c-.13.95,1.32,1.35,1.45.4q4.78-34.61,10.16-69.11c.15-.95-1.29-1.35-1.44-.4Z" transform="translate(56.56 -15.39)"/><path d="M152.43,442.71c-4.52,7.8-6,17.81-8.14,26.47q-3.79,15.27-6.84,30.71c-.19.94,1.26,1.34,1.45.4q2.88-14.51,6.38-28.86c2.22-9.06,3.72-19.82,8.45-28a.75.75,0,0,0-1.3-.76Z" transform="translate(56.56 -15.39)"/><path d="M138.75,503.29c5.65,3.85,13.8,4.73,20.46,5.54,7.33.88,14.52.38,21.15-3.07.86-.44.1-1.73-.76-1.29-6.87,3.57-14.43,3.74-22,2.64-5.95-.87-13.07-1.67-18.13-5.12-.8-.54-1.55.76-.76,1.3Z" transform="translate(56.56 -15.39)"/></g><g id="leg_right" data-name="leg right"><path d="M252.34,396.71l16.36,4q23.07-29.14,25.71-27.38,3,1.94-19.36,42.07l-24.38-5.92Q251.51,403.1,252.34,396.71Z" transform="translate(56.56 -15.39)"/><path d="M84.69,396.36a24.38,24.38,0,0,0,3.58,10.17c4.3,6.75,10.83,9.3,14.09,10.51,11,4.1,21.43,1.77,26.6.55,27.68-6.52,56.28-16.85,66.4-20.59,8.84,4.7,18.5,9.42,29,14,9.5,4.12,18.63,7.66,27.28,10.71a53.48,53.48,0,0,0,8.86-19.63,52.89,52.89,0,0,0,1.27-12.62l-52-22.75a430.11,430.11,0,0,0-57.47-1.16c-15.77.76-21.52,2-26,3.22C106,374.51,92.37,387.44,84.69,396.36Z" transform="translate(56.56 -15.39)" style="fill:#fff"/><path d="M87.93,392.77a21.86,21.86,0,0,0,6.7,11.61c10.12,8.59,26.56,2.69,65-7.31,9.54-2.48,22.59-5.77,38.26-9.41a75,75,0,0,0,18.48,13.5,77.45,77.45,0,0,0,41.82,8q-3.68,7-7.34,14c-7.28-2.69-14.95-5.8-22.89-9.43a327.18,327.18,0,0,1-31.49-16.52c-14.17,3.71-25.41,7.31-32.74,9.79-23.84,8.06-32.41,13-47.93,12.32-4.89-.23-15.52-1.27-23.85-8.5-2.44-2.12-7.31-6.35-6.85-11.93A11,11,0,0,1,87.93,392.77Z" transform="translate(56.56 -15.39)" style="fill:#9e9e9e;opacity:0.23"/><path d="M85.44,402.73c7,16.48,26.7,19.08,42.3,15.89,11.15-2.28,22-6.33,32.82-9.77l35-11.13c.91-.29.52-1.74-.4-1.44-19.63,6.23-39.17,12.92-58.95,18.65-16.93,4.91-41.09,6.69-49.47-13-.38-.88-1.67-.12-1.3.76Z" transform="translate(56.56 -15.39)"/><path d="M141,367.12a374.48,374.48,0,0,1,68.7.32c1,.1,1-1.4,0-1.5a374.48,374.48,0,0,0-68.7-.32c-.95.08-1,1.58,0,1.5Z" transform="translate(56.56 -15.39)"/><path d="M210.46,367.32a417.72,417.72,0,0,1,49.85,23.22c.85.46,1.61-.83.76-1.3a423.65,423.65,0,0,0-50.21-23.37c-.9-.35-1.29,1.1-.4,1.45Z" transform="translate(56.56 -15.39)"/><path d="M195.77,399.15c17.55,8.53,35,18.25,54,23.25a.75.75,0,0,0,.4-1.44c-18.84-5-36.21-14.63-53.64-23.1-.87-.42-1.63.87-.76,1.29Z" transform="translate(56.56 -15.39)"/><path d="M261,389.44A49.58,49.58,0,0,1,251.25,420c-.57.78.73,1.53,1.3.76a50.94,50.94,0,0,0,9.95-31.3.75.75,0,0,0-1.5,0Z" transform="translate(56.56 -15.39)"/></g><g id="hand_left" data-name="hand left"><path d="M107.9,288.48c-2.21,2.34-2.91,5.07-3.58,7.7a27,27,0,0,0-.62,10.11c.75,2.34,1.92,5.86,3.54,10.08a149.83,149.83,0,0,0,10.85,22.69c4.38,7.45,6.3,9.17,8.2,10.36,4,2.55,8.08,2.8,11.28,2.95,7.64.37,17.5.68,29.23.61a23,23,0,0,0,15.08,2A18.68,18.68,0,0,0,189,351.8a20.49,20.49,0,0,0,4.47-4.73c2.36-3.17,5.92-7.95,4.74-9.88-1.77-2.91-13.78,1.53-15.89,2.32-4.22-1-7.54-2-9.57-2.63-14.31-4.34-20-7.92-27.29-5.84a17.77,17.77,0,0,0-4.55,2c-1.55-4.38-4.3-12.22-7.74-22.14-6.51-18.82-8.55-25.18-13.81-26.46C115.47,283.5,110.63,285.58,107.9,288.48Z" transform="translate(56.56 -15.39)" style="fill:#fff"/><path d="M103.7,306.29c-.33-3.54-.06-9,1.58-9.36,2.33-.54,5.21,10.06,11.5,19.87a69.09,69.09,0,0,0,28.65,24.89c23.36,10.45,46.48,0,48.08,5.38.75,2.55-3.87,6.69-8.25,8.16-6.58,2.21-12.61-1.59-13.64-2.26-10.82.45-19.92.26-26.8-.06-11.41-.53-15-1.36-18.53-3.49-6.08-3.65-9.15-10.05-11.81-15.26-2.44-4.78-1.22-4.05-4.81-12.13C106.18,314.16,104.2,311.59,103.7,306.29Z" transform="translate(56.56 -15.39)" style="fill:#9e9e9e;opacity:0.23"/><path d="M103,306.49a172.2,172.2,0,0,0,9.6,23.87c3,6.06,6.3,14.31,11.71,18.62,5.2,4.13,13.4,4.36,19.74,4.65,9.18.43,18.41.12,27.59.09a.75.75,0,0,0,0-1.5c-7.36,0-14.72.13-22.08,0-7.6-.08-18,.43-24.25-4.52-5.45-4.29-8.83-12.86-11.81-19a168.77,168.77,0,0,1-9-22.7c-.3-.91-1.75-.52-1.45.4Z" transform="translate(56.56 -15.39)"/><path d="M128.57,301.81c2.33,5.31,4.53,10.68,6.56,16.11,1.49,4,2.63,8.12,4.7,11.84.47.84,1.76.09,1.29-.76-2.57-4.62-4-10-5.86-14.94-1.7-4.38-3.51-8.71-5.39-13-.39-.88-1.68-.12-1.3.76Z" transform="translate(56.56 -15.39)"/><path d="M141.87,333c3-2.61,9.32-.76,12.61-.11a84.32,84.32,0,0,1,9.48,2.52c5.83,1.87,11.48,3.8,17.67,3.88a.75.75,0,0,0,0-1.5c-9-.12-17.16-4.35-25.89-6.18-4.42-.93-11.13-3-14.93.33-.73.64.34,1.69,1.06,1.06Z" transform="translate(56.56 -15.39)"/><path d="M186.76,338.38c2.4-1.19,6.66-2.51,9.35-1.31.6.27,1.87,1.35,1.57,2.2-.09.26-1.47.47-1.75.54a18.92,18.92,0,0,1-4.93.37c-1,0-1,1.47,0,1.5,2.05.07,10.83-.1,8.29-4.38-1-1.75-3.7-1.95-5.52-2a16.14,16.14,0,0,0-7.77,1.8c-.86.43-.11,1.73.76,1.3Z" transform="translate(56.56 -15.39)"/><path d="M192,341.38a14.69,14.69,0,0,0-8.59,2.22c-1.27.82-2.65,2.25-1.07,3.45,1.9,1.45,5.73.5,7.86,0,2.51-.55,4.75-1.79,5.83-4.21.39-.88-.91-1.64-1.3-.76-1.5,3.37-5.53,3.85-8.82,4-.72,0-2.21.36-1.75-1.25.14-.46,1.86-1,2.22-1.12a13.45,13.45,0,0,1,5.62-.9c1,0,1-1.47,0-1.5Z" transform="translate(56.56 -15.39)"/><path d="M183.85,346.09c-2.31,1.64-3,4.64.48,5.3,3.79.73,8-1.81,10.38-4.54.64-.72-.42-1.78-1.06-1.06a12,12,0,0,1-5.17,3.58,9.22,9.22,0,0,1-2.93.6c-2,0-2.71-1.33-.94-2.58.78-.56,0-1.86-.76-1.3Z" transform="translate(56.56 -15.39)"/><path d="M182.58,350c-1.54,1-3.66,3.73-1,4.87,2.39,1,5.82-1.32,7.8-2.41.85-.47.09-1.76-.75-1.3a38.25,38.25,0,0,1-3.86,1.89,4.12,4.12,0,0,1-1.79.53c-.76.13-1-.38-.68-1.53a4.89,4.89,0,0,1,1-.76c.81-.52.06-1.81-.76-1.29Z" transform="translate(56.56 -15.39)"/><path d="M180.76,354.06a2.69,2.69,0,0,0,3.2,2.38,7.47,7.47,0,0,0,4.73-3.3c.57-.78-.73-1.53-1.29-.75a7,7,0,0,1-2.15,2c-.72.43-2.83,1.26-3-.32-.11-.95-1.61-1-1.5,0Z" transform="translate(56.56 -15.39)"/></g><g id="torso"><path d="M99.73,277.36A129.46,129.46,0,0,0,89.15,294.2c-21.52,41-15.62,83.91-10.57,106.13a46.7,46.7,0,0,0,31.33-1.57c20.33-8.69,26-29.15,26.63-31.72a70.18,70.18,0,0,1-3.92-18.8c-.49-7.38.37-12.59,1.18-18.8,1-7.44,2.13-18.18,2.74-31.72Z" transform="translate(56.56 -15.39)" style="fill:#ec615b"/></g><g id="head"><path d="M139.82,234.72a74.89,74.89,0,0,1,10.11,11.63,72.37,72.37,0,0,1,4.16,6.64l-4.13.41a30,30,0,0,1,4,19.94,13.18,13.18,0,0,1-2.77,2.63,15.34,15.34,0,0,1-4.75,2.1,42.28,42.28,0,0,1-7.4,1.55l-6.3,6.49-12.57-5.88,3-5.27a6.78,6.78,0,0,1-5.58,1.6,6.27,6.27,0,0,1,.51-12.35c-3.25-11.09.22-22.06,7.91-27C131.44,233.82,137.37,234.35,139.82,234.72Z" transform="translate(56.56 -15.39)" style="fill:#fff"/><path d="M137.16,235.26a17.32,17.32,0,0,0-1.9,1,19.47,19.47,0,0,0-7.43,9.07c-2.45,6.78.83,13.19,1.16,13.81,6.11,11.48,24.18,11.63,23.81,15.45-.12,1.25-2.13,2-5.08,3a29.76,29.76,0,0,1-15.54,1.15L126,282.93l-5.78-2.7c3.39-5.08,4-6.33,3.77-6.47s-1.91,2.58-4.67,2.9a5.9,5.9,0,0,1-5.51-2.86c-1.55-2.8-.1-7.5,4.34-10.15a29,29,0,0,1-.77-7.39c.08-3.49.29-12.67,7.07-17.8C129.17,234.84,134.83,235,137.16,235.26Z" transform="translate(56.56 -15.39)" style="fill:#9e9e9e;opacity:0.22"/><path d="M139.1,218.92a8.28,8.28,0,0,1-1.94,16.34,40,40,0,0,0-11.45,9.41,39.33,39.33,0,0,0-4.64,7v13.65l-5.6.54a5.92,5.92,0,0,0,3.8,10.85,6.35,6.35,0,0,0,4.62-3.36,4.79,4.79,0,0,1,2.81,2.46c1.4,3.61-4.33,8.38-4.85,8.82-6.4,5.33-15.41,3.91-18.28,3.34-7.17-.64-12.88-5.35-14.16-11.33-1.16-5.34,1.64-9.75,2.34-10.79a9.79,9.79,0,0,1,4.16-18.27c-5.43-7.87-3.82-18.07,2.51-22.95,4.78-3.68,11.83-4,17.76-.77a17.6,17.6,0,0,1,9.53-6.69A17.86,17.86,0,0,1,139.1,218.92Z" transform="translate(56.56 -15.39)" style="fill:#461eb8"/><path d="M139.29,235.25c5.23,5.72,10.4,11.28,14.16,18.12l.64-1.13-4.14.24c-1,.05-1,1.55,0,1.5l4.14-.24a.76.76,0,0,0,.65-1.13c-3.82-7-9.06-12.59-14.39-18.42-.65-.71-1.71.35-1.06,1.06Z" transform="translate(56.56 -15.39)"/><path d="M149.31,253.78a30.21,30.21,0,0,1,3.9,19.56c-.13,1,1.37,1,1.5,0A31.48,31.48,0,0,0,150.6,253a.75.75,0,0,0-1.29.76Z" transform="translate(56.56 -15.39)"/><path d="M124.05,274c5.58,7,14.58,7.42,22.59,4.82.91-.3.52-1.75-.4-1.45-7.53,2.45-15.86,2.22-21.13-4.44-.59-.75-1.65.32-1.06,1.07Z" transform="translate(56.56 -15.39)"/><path d="M123.24,272.92a5,5,0,0,1-8.3,1.23c-2.51-2.8-1.06-6.8,2-8.34.87-.43.11-1.73-.75-1.3-4,2-5.49,7.23-2.35,10.7a6.52,6.52,0,0,0,10.66-1.54c.44-.85-.86-1.61-1.3-.75Z" transform="translate(56.56 -15.39)"/><path d="M137.71,279.3a44.91,44.91,0,0,1-3.71,5.08c-.62.73.43,1.8,1.06,1.06a47,47,0,0,0,3.94-5.38c.52-.82-.78-1.58-1.29-.76Z" transform="translate(56.56 -15.39)"/><path d="M138.88,245.65a3.66,3.66,0,0,1-.91-1.78l-.92.92a2.26,2.26,0,0,1,1.57,1.75l.52-.92s0,0-.07-.09c-.46-.85-1.76-.09-1.29.76a1.58,1.58,0,0,0,1.76.77.75.75,0,0,0,.52-.92,3.72,3.72,0,0,0-2.62-2.79.76.76,0,0,0-.92.92,5.23,5.23,0,0,0,1.3,2.44c.66.71,1.72-.35,1.06-1.06Z" transform="translate(56.56 -15.39)"/><path d="M130.46,243.27a.75.75,0,0,0,0-1.5.75.75,0,0,0,0,1.5Z" transform="translate(56.56 -15.39)"/><path d="M131.33,241.83c0-1.91,1.49-5.43,4-4.81.94.23,1.34-1.22.4-1.45-3.49-.87-5.87,3.31-5.86,6.26a.75.75,0,0,0,1.5,0Z" transform="translate(56.56 -15.39)"/><path d="M145.49,259.73a5.61,5.61,0,0,0,7.12-1.2c.62-.74-.44-1.81-1.06-1.06a4.12,4.12,0,0,1-5.3,1,.75.75,0,0,0-.76,1.29Z" transform="translate(56.56 -15.39)"/></g><g id="hand_right" data-name="hand right"><path d="M119.59,295.24a23.43,23.43,0,0,1,1-11.24c.62-1.73,3.81-10.69,11-11.95a10.26,10.26,0,0,1,7.16,1.38c3.14,2.1,4,5.78,4.37,7.12,1.58,6.07,5.83,16.5,13.35,32.6a94.77,94.77,0,0,1,11.94-4.87c9.08-3,13.44-2.95,21.63-5.84a77.19,77.19,0,0,0,13.31-6.23,13,13,0,0,1,6-7.78,11,11,0,0,1,13.9,2.22,11.17,11.17,0,0,1,7.64,2.88,10,10,0,0,1,2.24,3.15c-1.84,2.07-3.3,3.81-4.3,5a42.6,42.6,0,0,1-2.88,3.38,16.22,16.22,0,0,1-5.12,3.76c-4.07,1.54-6.35-1.89-11.24-1.63-3,.15-4.79,1.58-9.4,5-4.79,3.54-9.94,6.59-14.52,10.39-5.35,4.44-14.16,10.5-29.28,17.41a92.12,92.12,0,0,1-36.84-44.76Z" transform="translate(56.56 -15.39)" style="fill:#fff"/><path d="M123.35,278.34c1.29,3.31,3.12,7.78,5.54,13,11.06,23.63,18.14,38.76,28.3,40.06,10.45,1.35,13.8-13.88,36-23.52a73.36,73.36,0,0,1,22.49-5.71,30.23,30.23,0,0,0,6.08-5.67c2.38-2.95,3-4.83,4.61-5.15,1.35-.26,3.49.51,6.83,5.38-1.15,1.3-2.86,3.26-4.87,5.72-2.75,3.35-3.11,4-4,4.75-2,1.72-6,2.88-14.54.06-3.5,1.92-8.71,4.91-14.78,9-3.86,2.59-6.57,4.6-10.23,7.33-13.45,10-17.67,14.48-26,16a30.77,30.77,0,0,1-3.93.46,109.84,109.84,0,0,1-19.77-18.58c-5.79-7-8.65-12.28-12.23-18.9-2.13-3.94-3.14-6.27-3.48-9.3C118.63,286.61,121.53,281.16,123.35,278.34Z" transform="translate(56.56 -15.39)" style="fill:#9e9e9e;opacity:0.35000000000000003"/><path d="M124.52,280.38c2.57-4.91,8.66-11.38,14.25-5.64,3.37,3.45,4.75,8.53,6.54,12.94q4.59,11.29,8.87,22.7c.33.89,1.78.51,1.44-.4q-3.62-9.64-7.46-19.22c-2.12-5.29-3.89-12.3-7.68-16.7-6.07-7-13.91-.83-17.26,5.56-.44.86.85,1.62,1.3.76Z" transform="translate(56.56 -15.39)"/><path d="M118.86,295.44a105.56,105.56,0,0,0,35.62,45.17c.78.57,1.53-.73.76-1.29A103.6,103.6,0,0,1,120.31,295c-.37-.88-1.82-.49-1.45.4Z" transform="translate(56.56 -15.39)"/><path d="M154.26,315.32c16.62-10,37.39-9.23,53.62-20.08.8-.53.05-1.83-.75-1.29-16.22,10.83-37,10.06-53.62,20.08a.75.75,0,0,0,.75,1.29Z" transform="translate(56.56 -15.39)"/><path d="M155,340.83c8.38-.51,15.77-7.16,22.44-11.68q13.14-8.88,25.87-18.32c.77-.57,0-1.87-.76-1.3q-11.21,8.28-22.69,16.17c-7,4.8-16.07,13.1-24.86,13.63-1,.06-1,1.56,0,1.5Z" transform="translate(56.56 -15.39)"/><path d="M204.06,296.59c1.91-2.5,3.76-5.85,6.12-7.91,3-2.6,5.2-.58,8.44-.86.95-.09,1-1.59,0-1.5-3,.26-5.53-1.67-8.27.19-3.08,2.09-5.37,6.43-7.58,9.33-.59.76.71,1.51,1.29.75Z" transform="translate(56.56 -15.39)"/><path d="M203.57,311.22c1.79-1.88,3.63-3.53,6.41-3.69,2.07-.12,4.71,1.1,6.74,1.5,2.18.43,4.25.87,6.2-.39.81-.52.06-1.82-.75-1.29-3.57,2.3-9-1.5-12.83-1.29-2.89.16-4.93,2.11-6.83,4.1-.67.7.39,1.76,1.06,1.06Z" transform="translate(56.56 -15.39)"/><path d="M219.64,287.69a6,6,0,0,1,2.93,3.16c.34.89,1.79.5,1.44-.4a7.53,7.53,0,0,0-3.61-4.06c-.86-.43-1.62.86-.76,1.3Z" transform="translate(56.56 -15.39)"/><path d="M223.6,291.29c2.37.56,8.68,2.26,8.82,5.39.05,1,1.55,1,1.5,0-.19-4.18-6.63-6.05-9.93-6.84-.93-.22-1.33,1.23-.39,1.45Z" transform="translate(56.56 -15.39)"/><path d="M223.21,297a15.16,15.16,0,0,0,10.21.92c.93-.23.53-1.68-.4-1.44a13.56,13.56,0,0,1-9.05-.77c-.88-.4-1.64.89-.76,1.29Z" transform="translate(56.56 -15.39)"/><path d="M222.8,301.26a9,9,0,0,0,9.29-1.8c.72-.64-.34-1.7-1.06-1.06a7.53,7.53,0,0,1-7.83,1.41c-.9-.34-1.29,1.11-.4,1.45Z" transform="translate(56.56 -15.39)"/><path d="M219.58,303.69a8.2,8.2,0,0,0,9.82-1.46c.67-.69-.39-1.75-1.06-1.06a6.66,6.66,0,0,1-8,1.22c-.85-.46-1.61.84-.76,1.3Z" transform="translate(56.56 -15.39)"/><path d="M221.25,309.49a18.2,18.2,0,0,0,6.37-5.18c.59-.75-.46-1.82-1.06-1.06a17.22,17.22,0,0,1-6.07,4.94c-.87.43-.11,1.72.76,1.3Z" transform="translate(56.56 -15.39)"/></g></g><g id="guy_1" data-name="guy 1"><g id="hand_right-2" data-name="hand right"><path d="M394.53,87.19a15.06,15.06,0,0,0-7,2.72,16.18,16.18,0,0,0-5.67,8.36c-1.82,5.35-1,9.67.12,17,.69,4.41,1.75,11.42,2.95,20.54a19.84,19.84,0,0,0-1.73,3.61,21.33,21.33,0,0,0-1.17,8.31c.06,2.06-.51,6.52-1.65,15.44-1.17,9.11-2.34,8.81-4,19-.42,2.63-2.71,16.88-.54,17.51.84.24,2.12-1.6,3.15-3.36A13.54,13.54,0,0,0,384.2,194c.81-.61,6.18-4.78,5.08-9.86a8.07,8.07,0,0,0-3.26-4.69c1.28-2.32,2.9-5.43,4.59-9.17a140.67,140.67,0,0,0,5.25-13.64c5.38-17.12,4.2-37.35,4-40.21A129.64,129.64,0,0,0,394.53,87.19Z" transform="translate(56.56 -15.39)" style="fill:#fff"/><path d="M394,91.28c-.62.13,1.34,7.91,1.91,18.23,1,17.55-2.71,31.49-6.15,44.53a210,210,0,0,1-8.2,24.74,15,15,0,0,1,2.55,4.93c1.61,5.53-.86,9.82.1,10.27s5-3.22,5.09-7.9a10.15,10.15,0,0,0-2.93-7c1.33-2.54,3.06-6,4.91-10.26.65-1.49,1.69-3.88,2.74-6.7a112.88,112.88,0,0,0,4.25-14.85,114.76,114.76,0,0,0,1-37.63C397.64,99.86,394.65,91.14,394,91.28Z" transform="translate(56.56 -15.39)" style="fill:#9e9e9e;opacity:0.23"/><path d="M387.67,89c-6.27,3.52-7.59,11.25-7.33,17.88.39,9.73,2.5,19.55,3.89,29.17.13.95,1.58.55,1.44-.4-1.13-7.89-2.42-15.78-3.38-23.69-.88-7.34-1.33-17.47,6.14-21.67a.75.75,0,0,0-.76-1.29Z" transform="translate(56.56 -15.39)"/><path d="M387.26,133.26c-5.13,3.21-5.52,8.81-5.95,14.38a276.52,276.52,0,0,1-3.68,28.08c-.17.94,1.28,1.35,1.45.4,1.13-6.2,2.08-12.43,2.79-18.69.8-7-.63-18.64,6.15-22.87.81-.51.06-1.81-.76-1.3Z" transform="translate(56.56 -15.39)"/><path d="M399,115a104.59,104.59,0,0,1-13.7,63.83.75.75,0,0,0,1.3.76A106,106,0,0,0,400.47,115c-.1-.95-1.6-1-1.5,0Z" transform="translate(56.56 -15.39)"/><path d="M380,178.45a8.93,8.93,0,0,1,3.34,5.17,6.9,6.9,0,0,1,.6,2.37c-.24,1.22-2.42-.47-3-.85-.79-.55-1.54.75-.75,1.3,1,.72,2.74,2.1,4.11,1.81s1.26-1.61,1-2.66c-.66-3.22-1.78-6.53-4.63-8.44-.8-.54-1.55.76-.76,1.3Z" transform="translate(56.56 -15.39)"/><path d="M377.57,175.83a52.53,52.53,0,0,0-3,13c-.26,2.78-1,7.52,1.16,9.86,4.32,4.68,4-5.76,3.66-7.67-.15-1-1.6-.54-1.45.4a14.45,14.45,0,0,1,.19,5.56q-2.93-.37-2.27-3.22a37,37,0,0,1,.21-4.93A50.83,50.83,0,0,1,379,176.23c.33-.91-1.12-1.31-1.45-.4Z" transform="translate(56.56 -15.39)"/><path d="M381.59,196.24a10.8,10.8,0,0,1,.87-5.14c.06-.14.51-1.16.77-1s.2,1.09.21,1.26a19.68,19.68,0,0,1,0,2.66c-.05,1,1.45,1,1.5,0,.08-1.4.49-6.55-2.33-5.27a4.26,4.26,0,0,0-1.91,2.76,12.65,12.65,0,0,0-.62,4.77c.05,1,1.55,1,1.5,0Z" transform="translate(56.56 -15.39)"/><path d="M385.22,190.87a9.85,9.85,0,0,1,1.58-4.48l-1.18.15a2.89,2.89,0,0,1,.41,3c-.36.9,1.09,1.29,1.44.4a4.37,4.37,0,0,0-.79-4.46.76.76,0,0,0-1.18.15,11.38,11.38,0,0,0-1.78,5.24c-.09,1,1.41.95,1.5,0Z" transform="translate(56.56 -15.39)"/><path d="M387.84,186.14a3.27,3.27,0,0,1,1.41-3.58l-1.1-.44a8.18,8.18,0,0,1-.31,5.66c-.37.89,1.08,1.27,1.45.4a9.39,9.39,0,0,0,.3-6.46.76.76,0,0,0-1.1-.45,4.83,4.83,0,0,0-2.1,5.27c.23.93,1.68.54,1.45-.4Z" transform="translate(56.56 -15.39)"/><path d="M381.21,196.88a22.47,22.47,0,0,0,5.87-4.28.75.75,0,0,0-1.06-1.06,21.12,21.12,0,0,1-5.57,4c-.86.44-.1,1.73.76,1.3Z" transform="translate(56.56 -15.39)"/><path d="M387.69,191.54a19.94,19.94,0,0,0,2.32-5.26.75.75,0,0,0-1.45-.4,18.19,18.19,0,0,1-2.17,4.9c-.51.82.79,1.57,1.3.76Z" transform="translate(56.56 -15.39)"/></g><g id="leg_right-2" data-name="leg right"><path d="M418.07,264.05l.54,10.68q-35.07,12-34.53,14,.66,2.3,50.43-9.32-1.78-10-3.56-20Z" transform="translate(56.56 -15.39)"/><path d="M440.78,142.12c-.87.83-2.63,3.7-6.15,9.43-5.47,8.92-8.91,14.52-13,22.57A127.62,127.62,0,0,0,408.18,212c-3.88,20.39-1.92,41.44-.81,50.6a24.13,24.13,0,0,0,9.31,3.51c13.94,2.1,24.61-9.46,25.87-10.87a84.15,84.15,0,0,1-.72-43.6c2.52-3.59,6.34-9,11.16-15.35,7-9.31,9.64-12.22,13.25-17,13.18-17.45,20.41-27,17.5-34.07C479.29,134.46,452,131.52,440.78,142.12Z" transform="translate(56.56 -15.39)" style="fill:#fff"/><path d="M466.28,161.84q-4.47,5.91-8.93,12-14.24,19.46-26.68,38.47c.07,3.75,0,7.69-.28,11.79a140.52,140.52,0,0,1-10.11,43.52,59.67,59.67,0,0,0,21.39-10.58l-.89-43.33q3.53-5.37,7.29-10.81c8.68-12.5,17.53-24,26.34-34.59Z" transform="translate(56.56 -15.39)" style="fill:#9e9e9e;opacity:0.21"/><path d="M438.09,144.55c-10.56,17-21.26,34.23-27.28,53.43-6.38,20.32-5.73,42.27-4,63.27.08,1,1.58,1,1.5,0-1.72-20.86-2.39-42.69,3.95-62.88,6-19.06,16.64-36.22,27.12-53.07.52-.82-.78-1.57-1.29-.75Z" transform="translate(56.56 -15.39)"/><path d="M475.33,167.15q-20.06,23.64-37.69,49.17c-.55.8.75,1.55,1.3.76q17.51-25.35,37.45-48.87c.62-.73-.43-1.8-1.06-1.06Z" transform="translate(56.56 -15.39)"/><path d="M440.63,213.19a116,116,0,0,0,1.2,42.23c.2.94,1.65.55,1.44-.4a114.29,114.29,0,0,1-1.2-41.43c.15-1-1.29-1.35-1.44-.4Z" transform="translate(56.56 -15.39)"/><path d="M408,263.45c9.68,8.29,26.07,1.41,34.21-5.87.72-.64-.35-1.7-1.06-1.06-7.44,6.66-23.13,13.55-32.09,5.87-.73-.63-1.8.43-1.06,1.06Z" transform="translate(56.56 -15.39)"/></g><g id="leg_left-2" data-name="leg left"><path d="M481.89,264.17q2.26,7.31,4.54,14.62-32,18.72-31,20.68,1.17,2.31,47.66-18.41l-6.81-19.41Z" transform="translate(56.56 -15.39)"/><path d="M449,147.26l9.37,7.68,3,5.9c-.33,2.41-.79,5.84-1.29,10,0,0-.86,7-1.41,12.57a196.31,196.31,0,0,0-.68,32.67c1,11.57,4,22.22,10.06,43.56,1.41,5,2.66,9.1,3.51,11.86,2.71-.09,6.6-.29,11.28-.81a60,60,0,0,0,9.4-1.46c2.69-.75,12.11-3.39,14.51-9.73,1.48-3.92-.51-7.16-5-17-2.35-5.09-5.65-12.56-9.31-22,.77-4.31,2-11,3.73-19.25,2.65-12.82,5.5-25.84,5.5-25.84,3.15-14.36,3.64-16.06,3.53-20.24s-.41-11.72-4.87-18.9c-.58-.92-.93-1.38-6.31-8.07L485.78,118Z" transform="translate(56.56 -15.39)" style="fill:#fff"/><path d="M476.84,130a126.13,126.13,0,0,1,6.81,21.44c6.75,30.37.8,56.64-4.28,72.12a49.66,49.66,0,0,1,8.32,10.34c8.3,13.78,7.52,28,6.8,34.09a23,23,0,0,0,12.25-8.52q-7.12-20-14.26-40c3.68-24.65,6.83-37.15,9.16-44.07A63.1,63.1,0,0,0,505.07,157a37.41,37.41,0,0,0-.57-9.35c-.38-1.9-1.5-6.54-8.09-16.38A128.91,128.91,0,0,0,485.32,117Z" transform="translate(56.56 -15.39)" style="fill:#9e9e9e;opacity:0.25"/><path d="M448.42,147.79l9.37,7.68c.74.6,1.81-.45,1.06-1.06l-9.37-7.68c-.74-.61-1.81.45-1.06,1.06Z" transform="translate(56.56 -15.39)"/><path d="M486.05,120.47c5.47,5.85,11.05,11.88,14.7,19.08,4.55,9,3.95,17.79,1.94,27.4-3.68,17.56-7.48,35.11-11.22,52.66-.2.94,1.24,1.35,1.45.4l6.53-30.66c2.08-9.76,4.73-19.58,6.05-29.47,2.23-16.72-7.61-28.94-18.38-40.47-.67-.71-1.72.35-1.07,1.06Z" transform="translate(56.56 -15.39)"/><path d="M460.61,160.84c-2.49,18.8-5,37.82-3.25,56.8,1.61,17.66,7.3,34.5,13,51.18.31.91,1.76.52,1.45-.4-5.89-17.16-11.74-34.49-13.13-52.7s1-36.71,3.41-54.88c.13-1-1.37-.94-1.5,0Z" transform="translate(56.56 -15.39)"/><path d="M491.76,220.93a195.7,195.7,0,0,1,13.61,36,.75.75,0,0,0,1.45-.39,197.8,197.8,0,0,0-13.77-36.39c-.43-.86-1.72-.1-1.29.76Z" transform="translate(56.56 -15.39)"/><path d="M472.8,271.64c11.72.64,27.3-1.4,34.59-11.78.55-.79-.75-1.54-1.3-.76-6.91,9.85-22.25,11.64-33.29,11-1-.06-1,1.44,0,1.5Z" transform="translate(56.56 -15.39)"/></g><g id="torso-2" data-name="torso"><path d="M390,88.3c-1.49,4.67-.41,9,.42,12.42,2.79,11.57,11.21,18.54,13.76,20.6,11.93,9.6,21,6.62,29.41,16.89a31.33,31.33,0,0,1,5.22,9.37,37.5,37.5,0,0,0,11.42.53c22.06-2.45,34.38-24.5,36.35-28.17-3.79-9.22-14.57-31.7-38.21-43.09-12-5.8-21.48-5.87-24.26-5.82C412.56,71.24,394,75.82,390,88.3Z" transform="translate(56.56 -15.39)" style="fill:#461eb8"/></g><g id="head-2" data-name="head"><path d="M410.52,52.71A38.41,38.41,0,0,0,402.3,54C390.38,57.12,383,65.31,379.79,69.51c-3.65,2.82-7.72,3.25-9.8,1.48-1.14-1-2.12-3-1.57-4.57.14-.4.41-.87,2.43-2.43,1.36-1.05,2.53-1.84,3.34-2.36a26.57,26.57,0,0,1,3.36-12.84c1.47-2.6,5.38-9.52,13.58-11.37,10.6-2.38,18.68,6.15,19.23,6.74a22.15,22.15,0,0,1,5.27,10.45Z" transform="translate(56.56 -15.39)" style="fill:#ec615b"/><path d="M400.35,54c-.46,1.06.24,2.15,1.8,5.57,1.21,2.63,2.08,4.81,2.62,6.22-12.51,0-21.64,5.32-22.51,10.88a13.68,13.68,0,0,0,1,6.85,14.36,14.36,0,0,0,4.79,6.09,10.84,10.84,0,0,0,10.19,10.12c3.71.25,6.41-1.5,9.17-3.28a17.62,17.62,0,0,0,9-16.43A24.78,24.78,0,0,0,415,72a202.81,202.81,0,0,0-7.77-19.93C405.71,52,401.24,52,400.35,54Z" transform="translate(56.56 -15.39)"/><path d="M380.66,69a20.73,20.73,0,0,0,1.84,4.64,19.85,19.85,0,0,0,2.74,3.83l9.54,1.11a22.5,22.5,0,0,1,1.59-3.85,23.67,23.67,0,0,1,8.4-8.89l-4.41-11.11A55,55,0,0,0,380.66,69Z" transform="translate(56.56 -15.39)" style="fill:#fff"/><path d="M407.61,53.4c.38,1.44,1,3.65,2,6.29,1.81,4.77,2.84,5.8,4.71,10.75s2.19,7.54,2.27,8.5a19.25,19.25,0,0,1-.25,5.83c-1.19,5.43-5.28,8.81-7.17,10.16l3.35,1.1A41.05,41.05,0,0,0,417,91.84a34.31,34.31,0,0,0,8.78-15.67,28.79,28.79,0,0,0,.7-5.11l-4.2-.08a20.11,20.11,0,0,1-2.09-2.06,21.06,21.06,0,0,1-3.68-5.87c2.51-2.23,2.89-5.44,1.54-7.13a4.61,4.61,0,0,0-3.49-1.41Z" transform="translate(56.56 -15.39)" style="fill:#fff"/><path d="M386.17,63.5l1.7,14a8.41,8.41,0,0,1,4.11.21,8.58,8.58,0,0,1,3.51,2.11Q390.83,71.67,386.17,63.5Z" transform="translate(56.56 -15.39)" style="fill:#9e9e9e;opacity:0.31"/><path d="M408.61,53.56a66,66,0,0,1,5.11,8.89,58.44,58.44,0,0,1,4.69,14.1c1,5.24,1.49,7.86.4,11a15.45,15.45,0,0,1-7.24,8l-2-1.13a12.3,12.3,0,0,0,6.28-6.52,12.81,12.81,0,0,0,.59-4.11,33.6,33.6,0,0,0-1.18-11c-1.54-5.44-3.14-5.83-5-11.62A40.5,40.5,0,0,1,408.61,53.56Z" transform="translate(56.56 -15.39)" style="fill:#9e9e9e;opacity:0.31"/><path d="M380.75,69.94a18.91,18.91,0,0,0,2.6,7c.5.83,1.8.07,1.3-.75a17.89,17.89,0,0,1-2.45-6.69c-.15-1-1.59-.55-1.45.4Z" transform="translate(56.56 -15.39)"/><path d="M387.31,67.3a71.48,71.48,0,0,0,7.53,12.91.76.76,0,0,0,1.37-.18,16.32,16.32,0,0,0,.91-5.31.75.75,0,0,0-1.5,0,15.23,15.23,0,0,1-.85,4.92l1.37-.18a71.91,71.91,0,0,1-7.53-12.92c-.4-.88-1.69-.11-1.3.76Z" transform="translate(56.56 -15.39)"/><path d="M394.57,64.62a6.27,6.27,0,0,0,1.7,1.89.74.74,0,0,0,1-.27.76.76,0,0,0-.27-1,4.56,4.56,0,0,1-1.15-1.36.75.75,0,0,0-1.3.76Z" transform="translate(56.56 -15.39)"/><path d="M393.12,64.27a7.92,7.92,0,0,0,3.43-4c.36-.9-1.09-1.29-1.45-.4A6.24,6.24,0,0,1,392.37,63a.75.75,0,0,0,.75,1.3Z" transform="translate(56.56 -15.39)"/><path d="M384.21,78.25a32.26,32.26,0,0,1,8.65.73c.94.2,1.34-1.24.4-1.45a34,34,0,0,0-9.05-.78c-1,0-1,1.55,0,1.5Z" transform="translate(56.56 -15.39)"/><path d="M382,74.76a12.31,12.31,0,0,0,1.43,10.63A37.15,37.15,0,0,1,387.55,92a17.89,17.89,0,0,0,2.6,4.53c6.19,7.51,15.9,3.12,21.26-2.86.65-.72-.41-1.78-1.06-1.06-5.93,6.62-15.9,9.7-20.85.1-1.21-2.34-1.57-4.32-3.16-6.24-2.83-3.42-4.25-6.71-2.89-11.29a.75.75,0,0,0-1.44-.4Z" transform="translate(56.56 -15.39)"/><path d="M398.09,76a16.15,16.15,0,0,1,6.49-8.47c.8-.53.05-1.83-.76-1.3a17.87,17.87,0,0,0-7.18,9.37c-.3.92,1.15,1.31,1.45.4Z" transform="translate(56.56 -15.39)"/><path d="M400.3,56.14,404.05,66c.34.89,1.79.5,1.45-.4l-3.76-9.88c-.34-.9-1.79-.51-1.44.39Z" transform="translate(56.56 -15.39)"/><path d="M406.88,53.6c3,11.83,16.74,29,3.63,39.22-.76.59.31,1.65,1.06,1.06,13.71-10.69-.19-28.53-3.24-40.68-.23-.93-1.68-.54-1.45.4Z" transform="translate(56.56 -15.39)"/><path d="M413,57.29c.09-3.09,3.93-2.14,4.9-.12.68,1.42.89,4.92-1.41,5.13-.95.09-1,1.59,0,1.5,3.92-.35,4.14-5.86,2.13-8.34-2.21-2.71-7-2.08-7.12,1.83,0,1,1.46,1,1.5,0Z" transform="translate(56.56 -15.39)"/><path d="M381.09,69.44c6.81-7.32,21.36-19.77,32.23-15,.87.39,1.64-.9.76-1.29C402.31,48,387.48,60.37,380,68.38c-.66.71.4,1.77,1.06,1.06Z" transform="translate(56.56 -15.39)"/><path d="M380.28,68.34c-1.82,1-13.13,6-9.91-2.36.46-1.18,2.78-2.5,3.68-3.26a75.79,75.79,0,0,1,10.47-7.61c8.17-4.76,18-6.77,26.68-2.13.85.45,1.61-.84.75-1.3-12.94-6.9-26.57,0-36.92,8.3-2.32,1.88-9.82,6.51-7.12,10.63s10.21.7,13.13-1a.75.75,0,0,0-.76-1.29Z" transform="translate(56.56 -15.39)"/><path d="M375.42,59.25C376.06,49,383,40,393.53,38.71a18.51,18.51,0,0,1,20.63,15c.19.94,1.64.54,1.45-.4a20.1,20.1,0,0,0-22.28-16.17C382,38.59,374.61,48.3,373.92,59.25c-.06,1,1.44,1,1.5,0Z" transform="translate(56.56 -15.39)"/><path d="M415.69,64.28a34.69,34.69,0,0,0,6.06,7.23c.72.65,1.78-.41,1.06-1.06A33.36,33.36,0,0,1,417,63.52c-.51-.82-1.81-.07-1.29.76Z" transform="translate(56.56 -15.39)"/><path d="M409.22,95.07l2,1.13a.75.75,0,0,0,.76-1.29l-2-1.13a.75.75,0,0,0-.75,1.29Z" transform="translate(56.56 -15.39)"/></g><g id="hand_left-2" data-name="hand left"><path d="M421.53,83a88.59,88.59,0,0,1,16,39.18,43.28,43.28,0,0,0-6.6,6.42c-5.57,6.74-6.27,11.85-10.95,19.85a66.85,66.85,0,0,1-8.73,11.73q-14.67,4.38-14.36,6.13.21,1.18,7.29,1.17c-.85,1.57-2.2,3.94-4.05,6.71-3.81,5.7-6.89,8.8-6.39,9.35.23.27,1.29,0,5.26-2.69a6.56,6.56,0,0,0,2.91,1.67c2.89.73,5.11-3.12,7-2.28,1.05.45,1,1.7,1.54,1.79.89.13,2.54-2.64,5.85-14.67,5.57-4.57,10.29-8.52,13.95-11.59,10-8.4,16.45-14,22.88-22.35,3.17-4.1,5.95-8.35,6.19-13.93.13-2.83-.46-4.78-1.41-8.15-1.89-6.75-3.36-13.61-5.3-20.34-4.73-16.46-5.45-19.17-8.81-21.94-1.29-1.07-4.54-3.75-8.58-3.49C429.14,66,423.4,72.87,421.53,83Z" transform="translate(56.56 -15.39)" style="fill:#fff"/><path d="M435.21,65.6a73.27,73.27,0,0,1,8.88,16.88c2.24,6,8.72,23.62,2.65,42.28-4.14,12.7-12.93,21.2-30.51,38.2a32.71,32.71,0,0,1-3.85,3.36c-6,4.33-10.82,3.71-11.26,6.65-.36,2.4,1.54,3.79.69,6.56a6.59,6.59,0,0,1-1.92,2.91,8.09,8.09,0,0,0,5.45.24,7.92,7.92,0,0,0,3.56-2.41,3.1,3.1,0,0,0,2.56,1c3.77-.71,4-12.75,4-13.28a297.33,297.33,0,0,0,23.34-20.38c6.5-6.3,12.31-12.5,17.47-18.45a40.36,40.36,0,0,0,2.08-9.17,43.68,43.68,0,0,0,.18-6.3c-.33-6.61-2.44-11.65-4-16-5.48-15.25-2.55-17.63-7.22-23.63A26.54,26.54,0,0,0,435.21,65.6Z" transform="translate(56.56 -15.39)" style="fill:#9e9e9e;opacity:0.24"/><path d="M422.53,84.29c-1.36-7,2.46-14.74,9.38-17.22,9.16-3.27,13.75,4.82,16.18,12.11,4.41,13.24,8.46,26.71,10.5,40.54.14,1,1.59.55,1.45-.4a208.38,208.38,0,0,0-7.46-30.94c-2.1-6.79-3.73-16.33-9.6-21.11-11.23-9.17-24.05,6.3-21.89,17.42.18,1,1.62.55,1.44-.4Z" transform="translate(56.56 -15.39)"/><path d="M429.2,97.42a173.63,173.63,0,0,1,7.35,22A.75.75,0,0,0,438,119a175.77,175.77,0,0,0-7.35-22c-.36-.88-1.81-.5-1.45.4Z" transform="translate(56.56 -15.39)"/><path d="M437.1,121.56c-6.59,3.79-10,11.61-13.36,18.09-4.06,7.9-8.05,15.81-14.93,21.66-.73.63.33,1.69,1.06,1.07,5.76-4.9,9.57-11.2,13-17.83,3.83-7.35,7.45-17.39,14.95-21.69a.75.75,0,0,0-.76-1.3Z" transform="translate(56.56 -15.39)"/><path d="M458.42,122.16c-2.67,10.11-12.14,17.74-19.45,24.67q-11.49,10.9-24,20.6c-.76.59.31,1.64,1.06,1.06a321.58,321.58,0,0,0,26.64-23.1c6.74-6.55,14.74-13.41,17.23-22.83a.75.75,0,0,0-1.45-.4Z" transform="translate(56.56 -15.39)"/><path d="M408.84,160.53c-4,.61-9.68,1.4-12.14,5.11-.63,1-.87,2.32.31,2.94,1.73.91,5.46-.46,7.19-.87.94-.22.54-1.67-.4-1.45-1.26.31-3.51,1.19-4.78.91-1,.36-1.17-.09-.47-1.37l.91-.75a12.72,12.72,0,0,1,1.78-1,27.85,27.85,0,0,1,8-2c.95-.15.55-1.59-.4-1.45Z" transform="translate(56.56 -15.39)"/><path d="M403.4,167.31c-1.23,3.89-4.15,6.6-6.74,9.61-1.18,1.36-4.16,4.28-3.86,6.24.73,4.79,10-5.12,10.91-6.34.56-.78-.74-1.53-1.3-.75a22.22,22.22,0,0,1-3.18,3.6c-.45.41-3.22,3.05-3.93,2.77-1.42-.57,2.36-4.4,3-5.13,2.63-3,5.32-5.74,6.54-9.61.29-.92-1.16-1.31-1.45-.39Z" transform="translate(56.56 -15.39)"/><path d="M396.87,183c4.56,1.22,7.94-2.19,10.47-5.51.58-.77-.72-1.52-1.3-.76-2.09,2.76-4.93,5.85-8.77,4.82a.75.75,0,0,0-.4,1.45Z" transform="translate(56.56 -15.39)"/><path d="M401.48,183.2c4.3,1.9,7.47-1.9,9.52-5.18.51-.82-.78-1.57-1.29-.76-1.53,2.43-4,6.15-7.47,4.64-.87-.39-1.64.91-.76,1.3Z" transform="translate(56.56 -15.39)"/><path d="M408.18,180.07c-.79,2.39,2.12,3.37,3.76,2,4.07-3.44,2.69-10.08,5-14.28.46-.85-.83-1.61-1.3-.76-1.08,2-1.11,4.08-1.55,6.26a26.43,26.43,0,0,1-1,3.58,23,23,0,0,1-1.2,2.74c-.3,1-1.06,1.27-2.26.88.3-.92-1.15-1.32-1.45-.4Z" transform="translate(56.56 -15.39)"/></g></g><g id="Layer_16" data-name="Layer 16"><path d="M50.59,470.68c27.93-4.56,51.4-22.71,70-43.12,20-21.88,36.58-46.92,54-70.85l34.3-47.21c1.14-1.57-1.46-3.07-2.59-1.52-23.44,32.28-46.26,65.14-70.59,96.76C114,433,86.6,461.78,49.8,467.79c-1.9.31-1.1,3.2.79,2.89Z" transform="translate(56.56 -15.39)"/><path d="M227.91,289.91c31.68-9.67,63.94-20.25,91.5-39.13,13.46-9.22,24.73-20.43,35.22-32.86,10.66-12.63,21.17-25.68,35.72-34a1.5,1.5,0,0,0-1.51-2.59c-13.84,7.92-24.15,20-34.29,32.06-10.64,12.65-21.71,24.38-35.33,33.89-27.64,19.32-60.15,30-92.11,39.75-1.84.56-1.05,3.46.8,2.89Z" transform="translate(56.56 -15.39)"/><path d="M390.74,183a67.6,67.6,0,0,1,5.36-4.33c1.55-1.12.06-3.72-1.51-2.59a74.6,74.6,0,0,0-6,4.8c-1.45,1.29.68,3.41,2.12,2.12Z" transform="translate(56.56 -15.39)"/><path d="M417.16,168.7a151.18,151.18,0,0,0,67-64c7.34-13.64,13.09-29.19,24.92-39.75,4.94-4.41,14.3-10.41,21-5.8,4.9,3.39,2.37,12.52-2.45,15.07-.7.37-4.64.46-5.27-.49-.37-.54.25-2.5.39-3.09a35.81,35.81,0,0,1,2.44-6.39,61.94,61.94,0,0,1,39.77-33.71,1.51,1.51,0,0,0-.8-2.9,64.9,64.9,0,0,0-40.94,33.78c-1.92,4-7.59,15.46-.67,18,6.38,2.33,13.32-9.6,13.35-14.69,0-7.37-6.88-10.53-13.35-9.83-8.15.88-14.94,6.64-20.12,12.61-13.19,15.24-19.13,35.42-30.83,51.75a148.36,148.36,0,0,1-55.92,46.89c-1.73.85-.21,3.43,1.52,2.6Z" transform="translate(56.56 -15.39)"/></g></svg>