<svg focusable="false" viewBox="0 0 64 64" tabindex="-1">
  <path d="M32.58 12.17c-6.867.004-13.225 3.62-16.738 9.52s-3.663 13.213-.395 19.252L11.92 52.286l12.663-2.86a19.49 19.49 0 1 0 8.015-37.256z" />
  <path d="M44.454 16.208c6.114 6.482 7.05 16.286 2.274 23.81s-14.047 10.846-22.514 8.07L11.92 52.292l12.663-2.867c9.02 4.074 19.66.74 24.74-7.754s2.986-19.445-4.87-25.464z" />
  <path d="M32.27 0C14.9 0 .293 14.075.293 31.442V64l31.972-.03c17.36 0 31.442-14.617 31.442-31.978S49.614 0 32.27 0z" />
</svg>
